<svg xmlns="http://www.w3.org/2000/svg" xmlns:xlink="http://www.w3.org/1999/xlink" style="isolation:isolate" viewBox="0 0 20 20" version="1.1" shape-rendering="crispEdges" height="250"><path d="M3 20v-3h1v-1h4v-2H6v-1H5v-1H4v-1H3V9H2V7h1V4h1V3h1V2h10v1h1v1h1v3h1v2h-1v2h-1v1h-1v1h-1v1h-2v2h4v1h1v3H3z" fill="#B68655"/><path d="M14 14v-1h1v-1h1v-1h1V9h1V7h-1V4h-1V3h-1V2H5v1H4v1H3v3H2v2h1v2h1v1h1v1h1v1h8z" fill="#FFF" fill-opacity=".1"/><path d="M5 7v1h3V7H5zm7 0h3v1h-3V7z" fill="#FFF"/><path d="M5 9V8h1V7h1v1h1v1H5zm7 0V8h1V7h1v1h1v1h-3z" fill="#5b7c8b"/><path d="M5 9V8h1V7h1v1h1v1H7V8H6v1H5zm7 0V8h1V7h1v1h1v1h-1V8h-1v1h-1z" fill="#FFF" fill-opacity=".5"/><path d="M6 5h2v1h1v1H8V6H6V5zm8 0h-2v1h-1v1h1V6h2V5z" fill-rule="evenodd" fill="#000000"/><path d="M9 11v1H8v1h4v-1h-1v-1H9z" fill="#cf877a"/><path d="M5 7h3v3H5V7zm7 0h3v3h-3V7z" fill-rule="evenodd" fill="#FFF" fill-opacity=".2"/><path d="M7 7h1v1H7V7zm7 0h1v1h-1V7z" fill-rule="evenodd" fill="#FFF" fill-opacity=".2"/><path d="M12 10V7h3v3h-3zm-1-4v1H9V6H4v1H3v1h1v3h5V8h2v3h5V8h1V7h-1V6h-5zm-6 4V7h3v3H5z" fill-rule="evenodd" fill="#4b4b4b"/><path d="M3 7h1v1H3V7zm6 0h2v1H9V7zm7 0h1v1h-1V7z" fill-rule="evenodd" fill="#FFF" fill-opacity=".2"/><path d="M4 16v4h4v-1H7v-1H6v-2H4zM16 20v-4h-2v2h-1v1h-1v1h4z" fill="#eeba30"/><path d="M2 9v6h2v-4H3V9H2zm0-2h2V4h12v3h2V3h-1V2H3v1H2v4zm15 2h1v6h-2v-4h1V9z" fill-rule="evenodd" fill="#090806"/><path d="M4 3H2v1h16V3h-2V0H4v3z" fill="#2663a3"/></svg>