<svg xmlns="http://www.w3.org/2000/svg" xmlns:xlink="http://www.w3.org/1999/xlink" style="isolation:isolate" viewBox="0 0 20 20" version="1.1" shape-rendering="crispEdges" height="250"><path d="M8 15v1H4v1H3v3h14v-3h-1v-1h-4v-1h3v-1h1v-1h1v-3h1V7h-1V4h-1V3h-1V2H5v1H4v1H3v3H2v3h1v3h1v1h1v1h3z" fill="#F5CFA0"/><path d="M5 15v-1H4v-1H3v-3H2V7h1V4h1V3h1V2h10v1h1v1h1v3h1v3h-1v3h-1v1h-1v1H5z" fill="#FFF" fill-opacity=".1"/><path d="M6 7h1v2H5V8h1V7zm7 0h1v2h-2V8h1V7z" fill="#FFF"/><path d="M7 7v1H6v1h2V7H7zm7 0v1h-1v1h2V7h-1z" fill="#697b94"/><path d="M7 7v1h1V7H7zM6 8v1h1V8H6zm8-1v1h1V7h-1zm-1 1v1h1V8h-1z" fill="#FFF" fill-opacity=".5"/><path d="M6 5H4v2h1V6h1V5zm8 0h2v2h-1V6h-1V5z" fill-rule="evenodd" fill="#784632"/><path d="M3 7v6h1v1h1v1h10v-1h1v-1h1V7h-1v2h-1v1h-1v1H6v-1H5V9H4V7H3z" id="Path" fill="#91553d" fill-opacity="0.5"/><path d="M9 12v2h2v-2H9z" fill="#d29985"/><path d="M5 7h3v3H5V7zm7 0h3v3h-3V7z" fill-rule="evenodd" fill="#FFF" fill-opacity=".2"/><path d="M7 7h1v1H7V7zm7 0h1v1h-1V7z" fill-rule="evenodd" fill="#FFF" fill-opacity=".2"/><path d="M12 10V7h3v3h-3zm-1-4v1H9V6H4v1H3v1h1v3h5V8h2v3h5V8h1V7h-1V6h-5zm-6 4V7h3v3H5z" fill-rule="evenodd" fill="#5f705c"/><path d="M3 7h1v1H3V7zm6 0h2v1H9V7zm7 0h1v1h-1V7z" fill-rule="evenodd" fill="#FFF" fill-opacity=".2"/><path d="M3 20v-3h1v-1h4v-1h4v1h4v1h1v3H3z" fill="#6497b1"/><path d="M3 20v-3h1v-1h12v1h1v3H3z" fill="#FFF" fill-opacity=".2"/><path d="M12 19v-1h3v1h-3z" fill="#FFF" fill-opacity=".2"/><path d="M3 7h1V5h2V4h2V3h1v1h2v1h2v1h2v1h2V4h-1V3h-1V2H5v1H4v1H3v3z" fill="#91553d"/></svg>