<svg xmlns="http://www.w3.org/2000/svg" xmlns:xlink="http://www.w3.org/1999/xlink" style="isolation:isolate" viewBox="0 0 20 20" version="1.1" shape-rendering="crispEdges" height="250"><path d="M3 20v-3h1v-1h4v-2H6v-1H5v-1H4v-1H3V9H2V7h1V4h1V3h1V2h10v1h1v1h1v3h1v2h-1v2h-1v1h-1v1h-1v1h-2v2h4v1h1v3H3z" fill="#EAC393"/><path d="M14 14v-1h1v-1h1v-1h1V9h1V7h-1V4h-1V3h-1V2H5v1H4v1H3v3H2v2h1v2h1v1h1v1h1v1h8z" fill="#FFF" fill-opacity=".1"/><path d="M5 9V7h3v2H5zm7-2h3v2h-3V7z" fill="#FFF"/><path d="M7 8v1h1V8H7zm7 0h1v1h-1V8z" fill="#697b94"/><path d="M7 5v1H5v1H4V6h1V5h2zm6 0h2v1h1v1h-1V6h-2V5z" fill-rule="evenodd" fill="#120e11"/><path d="M8 11v1h1v1h2v-1H9v-1H8z" fill="#d11f4c"/><path d="M4 16v4h4v-1H7v-1H6v-2H4zM16 20v-4h-2v2h-1v1h-1v1h4z" fill="#ffc425"/><path d="M1 17h3v-1h4v-2H6v-1H5v-1H4v-1H3V9H2V7h1V5h1V4h7V3h1v1h1V3h1v1h1V3h1v2h1v2h1v2h-1v2h-1v1h-1v1h-1v1h-2v2h4v1h3V4h-1V3h-1V2h-1V1H4v1H3v1H2v1H1v13z" fill="#2c222b"/></svg>