<svg xmlns="http://www.w3.org/2000/svg" xmlns:xlink="http://www.w3.org/1999/xlink" style="isolation:isolate" viewBox="0 0 20 20" version="1.1" shape-rendering="crispEdges" height="250"><path d="M3 20v-3h1v-1h4v-2H6v-1H5v-1H4v-1H3V9H2V7h1V4h1V3h1V2h10v1h1v1h1v3h1v2h-1v2h-1v1h-1v1h-1v1h-2v2h4v1h1v3H3z" fill="#E0B687"/><path d="M14 14v-1h1v-1h1v-1h1V9h1V7h-1V4h-1V3h-1V2H5v1H4v1H3v3H2v2h1v2h1v1h1v1h1v1h8z" fill="#FFF" fill-opacity=".1"/><path d="M6 7h1v2H5V8h1V7zm7 0h1v2h-2V8h1V7z" fill="#FFF"/><path d="M7 7v1H6v1h2V7H7zm7 0v1h-1v1h2V7h-1z" fill="#588387"/><path d="M7 7v1h1V7H7zM6 8v1h1V8H6zm8-1v1h1V7h-1zm-1 1v1h1V8h-1z" fill="#FFF" fill-opacity=".5"/><path d="M4 7V6h1V5h1v1H5v1H4zm10-2h1v1h1v1h-1V6h-1V5z" fill-rule="evenodd" fill="#9c8e8e"/><path d="M8 12v1h1v1h2v-1h1v-1h-1v-1H9v1H8z" fill="#fa255b"/><path d="M9 12v1h2v-1H9z" fill="#FFF" fill-opacity=".2"/><path d="M5 7h3v2H5V7zm7 0h3v2h-3V7z" fill-rule="evenodd" fill="#FFF" fill-opacity=".2"/><path d="M7 7h1v1H7V7zm7 0h1v1h-1V7z" fill-rule="evenodd" fill="#FFF" fill-opacity=".2"/><path d="M5 7v2h3V7H5zM4 6v1H3v1h1v1h1v1h3V9h1V8h2v1h1v1h3V9h1V8h1V7h-1V6h-5v1H9V6H4zm8 1v2h3V7h-3z" fill-rule="evenodd" fill="#43677d"/><path d="M3 7h1v1H3V7zm6 0h2v1H9V7zm7 0h1v1h-1V7z" fill-rule="evenodd" fill="#FFF" fill-opacity=".2"/><path d="M4 16v4h4v-1H7v-1H6v-2H4zM16 20v-4h-2v2h-1v1h-1v1h4z" fill="#ffeead"/><path d="M1 15h5v-2H5v-1H4v-1H3V6h2V5h2V4h1V3h6v1h1v1h1v1h1v5h-1v1h-1v1h-1v2h5V4h-1V3h-1V2h-1V1H4v1H3v1H2v1H1v11z" fill="#b5a6a5"/></svg>