<svg xmlns="http://www.w3.org/2000/svg" xmlns:xlink="http://www.w3.org/1999/xlink" style="isolation:isolate" viewBox="0 0 20 20" version="1.1" shape-rendering="crispEdges" height="250"><path d="M3 20v-3h1v-1h4v-2H6v-1H5v-1H4v-1H3V9H2V7h1V4h1V3h1V2h10v1h1v1h1v3h1v2h-1v2h-1v1h-1v1h-1v1h-2v2h4v1h1v3H3z" fill="#A26D3D"/><path d="M14 14v-1h1v-1h1v-1h1V9h1V7h-1V4h-1V3h-1V2H5v1H4v1H3v3H2v2h1v2h1v1h1v1h1v1h8z" fill="#FFF" fill-opacity=".1"/><path d="M6 8h1v1H6V8zm7 0h1v1h-1V8z" fill="#FFF"/><path d="M7 8h1v1H7V8zm5 0h1v1h-1V8z" fill="#697b94"/><path d="M4 7V5h3v1H5v1H4zm12-2v2h-1V6h-2V5h3z" fill-rule="evenodd" fill="#211b14"/><path d="M9 11v2h2v-2H9z" fill="#de0f0d"/><path d="M3 20v-3h1v-1h3v1h1v1h1v1h2v-1h1v-1h1v-1h3v1h1v3H3z" fill="#eeba30"/><path d="M6 16v1h1v1h1v1h1v1h2v-1h1v-1h1v-1h1v-1h-1v1h-1v1h-1v1H9v-1H8v-1H7v-1H6z" fill="#FFF" fill-opacity=".4"/><path d="M15 16v1h-1v1h-1v1h-1v1h-1v-1h1v-1h1v-1h1v-1h1zM5 16v1h1v1h1v1h1v1h1v-1H8v-1H7v-1H6v-1H5z" fill-rule="evenodd" fill="#FFF" fill-opacity=".2"/><path d="M3 20h1v-3h1v1h1v1h1v1h1v-1H7v-1H6v-1H5v-1H4v1H3v3zm14 0v-3h-1v-1h-1v1h-1v1h-1v1h-1v1h1v-1h1v-1h1v-1h1v3h1z" fill-rule="evenodd" fill="#FFF" fill-opacity=".1"/><path d="M1 15h5v-2H5v-1H4v-1H3V6h2V5h2V4h1V3h6v1h1v1h1v1h1v5h-1v1h-1v1h-1v2h5V4h-1V3h-1V2h-1V1H4v1H3v1H2v1H1v11z" fill="#3b3024"/></svg>