<svg xmlns="http://www.w3.org/2000/svg" xmlns:xlink="http://www.w3.org/1999/xlink" style="isolation:isolate" viewBox="0 0 20 20" version="1.1" shape-rendering="crispEdges" height="250"><path d="M3 20v-3h1v-1h4v-2H6v-1H5v-1H4v-1H3V9H2V7h1V4h1V3h1V2h10v1h1v1h1v3h1v2h-1v2h-1v1h-1v1h-1v1h-2v2h4v1h1v3H3z" fill="#EAC393"/><path d="M14 14v-1h1v-1h1v-1h1V9h1V7h-1V4h-1V3h-1V2H5v1H4v1H3v3H2v2h1v2h1v1h1v1h1v1h8z" fill="#FFF" fill-opacity=".1"/><path d="M5 7h3v3H5V7zm7 0h3v3h-3V7z" fill="#FFF"/><path d="M6 7h2v2H6V7zm7 0h2v2h-2V7z" fill="#588387"/><path d="M6 7v1h1v1h1V8H7V7H6zm7 0v1h1v1h1V8h-1V7h-1z" fill="#FFF" fill-opacity=".4"/><path d="M7 7v1h1V7H7zm7 0h1v1h-1V7z" fill="#FFF" fill-opacity=".7"/><path d="M7 5v1H5v1H4V6h1V5h2zm7 0v1h-2v1h-1V6h1V5h2z" fill-rule="evenodd" fill="#a69d8d"/><path d="M2 9v2h1V9H2zm15 0h1v2h-1V9z" fill="#eee8aa"/><path d="M2 9v1h1V9H2zm15 0h1v1h-1V9z" fill="#FFF" fill-opacity=".4"/><path d="M8 11v1h1v1h2v-1h1v-1H8z" fill="#d11f4c"/><path d="M3 20v-3h1v-1h4v1h1v1h2v-1h1v-1h4v1h1v3H3z" fill="#88d8b0"/><path d="M3 20v-3h1v-1h2v1h1v1h1v1h4v-1h1v-1h1v-1h2v1h1v3H3z" fill="#FFF" fill-opacity=".2"/><path d="M2 10h1V8h1V7h1V6h1V5h1V4h7v1h3V4h-1V3h-1V2H4v1H3v1H2v6z" fill="#bfb5a3"/></svg>