<svg xmlns="http://www.w3.org/2000/svg" xmlns:xlink="http://www.w3.org/1999/xlink" style="isolation:isolate" viewBox="0 0 20 20" version="1.1" shape-rendering="crispEdges" height="250"><path d="M3 20v-3h1v-1h4v-2H6v-1H5v-1H4v-1H3V9H2V7h1V4h1V3h1V2h10v1h1v1h1v3h1v2h-1v2h-1v1h-1v1h-1v1h-2v2h4v1h1v3H3z" fill="#EAC393"/><path d="M14 14v-1h1v-1h1v-1h1V9h1V7h-1V4h-1V3h-1V2H5v1H4v1H3v3H2v2h1v2h1v1h1v1h1v1h8z" fill="#FFF" fill-opacity=".1"/><path d="M5 7h3v2H5V7zm7 0h3v2h-3V7z" fill="#FFF"/><path d="M5 8h2v1H5V8zm7 0h2v1h-2V8z" fill="#588387"/><path d="M5 5h3v1h1v1H8V6H5V5zm10 0h-3v1h-1v1h1V6h3V5z" fill-rule="evenodd" fill="#d9d0bf"/><path d="M9 11v2h2v-2H9z" fill="#d1a490"/><path d="M3 20v-3h1v-1h5v1h2v-1h5v1h1v3H3z" fill="#88d8b0"/><path d="M3 17h14v1H3v-1zm0 2v1h14v-1H3z" fill-rule="evenodd" fill="#FFF" fill-opacity=".2"/><path d="M3 4v3h1V4h2v1h1V4h1v1h1V4h7v3h1V4h1V2h-1V1h-2v1H5V1H3v1H2v2h1z" fill="#fffff5"/></svg>