<svg xmlns="http://www.w3.org/2000/svg" xmlns:xlink="http://www.w3.org/1999/xlink" style="isolation:isolate" viewBox="0 0 20 20" version="1.1" shape-rendering="crispEdges" height="250"><path d="M8 15v1H4v1H3v3h14v-3h-1v-1h-4v-1h3v-1h1v-1h1v-3h1V7h-1V4h-1V3h-1V2H5v1H4v1H3v3H2v3h1v3h1v1h1v1h3z" fill="#B68655"/><path d="M5 15v-1H4v-1H3v-3H2V7h1V4h1V3h1V2h10v1h1v1h1v3h1v3h-1v3h-1v1h-1v1H5z" fill="#FFF" fill-opacity=".1"/><path d="M5 7h3v2H5V7zm7 0h3v2h-3V7z" fill="#FFF"/><path d="M7 8h1v1H7V8zm5 0h1v1h-1V8z" fill="#697b94"/><path d="M12 7V6h1V5h1v1h1v1h-1V6h-1v1h-1zM5 7V6h1V5h1v1h1v1H7V6H6v1H5z" fill-rule="evenodd" fill="#574c45"/><path d="M3 7v6h1v1h1v1h10v-1h1v-1h1V7h-1v2h-1v1h-1v1H6v-1H5V9H4V7H3z" id="Path" fill="#71635a" fill-opacity="0.5"/><path d="M8 13v1h1v-1h3v-1H9v1H8z" fill="#eec1ad"/><path d="M4 8H3V7h14v1h-1v2h-5V8H9v2H4V8zm1 0h3v1H5V8zm7 0h3v1h-3V8z" fill-rule="evenodd" fill="#43677d"/><path d="M5 8h3v1H5V8zm7 0h3v1h-3V8z" fill-rule="evenodd" fill="#FFF" fill-opacity=".2"/><path d="M7 8v1h1V8H7zm7 0v1h1V8h-1z" fill-rule="evenodd" fill="#FFF" fill-opacity=".2"/><path d="M3 7v1h1V7H3zm13 0v1h1V7h-1zM9 7v1h2V7H9z" fill-rule="evenodd" fill="#FFF" fill-opacity=".2"/><path d="M3 20v-3h1v-1h4v1h4v-1h4v1h1v3H3z" fill="#03396c"/><path d="M3 19h14v1H3v-1zm0-2h14v1H3v-1z" fill-rule="evenodd" fill="#FFF" fill-opacity=".2"/><path d="M5 2v1H4v1H3v3h2V6h1V5h6V4h1V3h1v1h-1v1h1v1h1v1h2V4h-1V3h-1V2H5z" fill="#71635a"/></svg>