<svg xmlns="http://www.w3.org/2000/svg" xmlns:xlink="http://www.w3.org/1999/xlink" style="isolation:isolate" viewBox="0 0 20 20" version="1.1" shape-rendering="crispEdges" height="250"><path d="M3 20v-3h1v-1h4v-2H6v-1H5v-1H4v-1H3V9H2V7h1V4h1V3h1V2h10v1h1v1h1v3h1v2h-1v2h-1v1h-1v1h-1v1h-2v2h4v1h1v3H3z" fill="#B68655"/><path d="M14 14v-1h1v-1h1v-1h1V9h1V7h-1V4h-1V3h-1V2H5v1H4v1H3v3H2v2h1v2h1v1h1v1h1v1h8z" fill="#FFF" fill-opacity=".1"/><path d="M5 8h2v1H5V8zm7 0h2v1h-2V8z" fill="#FFF"/><path d="M7 8h1v1H7V8zm7 0h1v1h-1V8z" fill="#588387"/><path d="M5 5h3v1h1v1H8V6H5V5zm10 0h-3v1h-1v1h1V6h3V5z" fill-rule="evenodd" fill="#a39277"/><path d="M8 12v1h1v1h2v-1h1v-1h-1v-1H9v1H8z" fill="#de0f0d"/><path d="M9 12v1h2v-1H9z" fill="#FFF"/><path d="M3 20v-3h1v-1h2v1h1v1h1v1h1v1H3zm14 0v-3h-1v-1h-2v1h-1v1h-1v1h-1v1h6z" fill-rule="evenodd" fill="#d11141"/><path d="M1 17h3v-1h4v-2H6v-1H5v-1H4v-1H3V9H2V7h1V5h1V4h7V3h1v1h1V3h1v1h1V3h1v2h1v2h1v2h-1v2h-1v1h-1v1h-1v1h-2v2h4v1h3V4h-1V3h-1V2h-1V1H4v1H3v1H2v1H1v13z" fill="#e6cea8"/></svg>